<svg xmlns="http://www.w3.org/2000/svg" width="212.344" height="45.62" viewBox="0 0 212.344 45.62"><defs><style>      .cls-1 {        fill: none;        stroke: #63be60;        stroke-width: 2px;        stroke-dasharray: 8 4;        fill-rule: evenodd;      }    </style></defs><path class="cls-1" d="M633,5686.61c9.609-8.33,19.612-12.96,29.63-11.94,9.983,1.02,22.075,10.76,27.259,13.13,13.866,6.35,24.708,5.67,28.444,3.59,5.814-3.25,12.58-11.56,9.482-19.1-2.519-6.13-10.759-9.81-17.329-7.31-7.473,2.84-8.617,11.57-8.745,14.47-0.5,11.38,10.518,21.63,21.333,23.87a27.3,27.3,0,0,0,14.222-1.19c11.783-4.18,24.829-13.1,28.445-15.52,17.112-11.46,42.2-11.41,74.666-1.19m-8.3,4.77,9.482-3.58-2.371-9.55" transform="translate(-632 -5661.19)"></path></svg>